<?xml version="1.0" encoding="UTF-8" ?>
<!DOCTYPE svg PUBLIC "-//W3C//DTD SVG 1.1//EN" "http://www.w3.org/Graphics/SVG/1.1/DTD/svg11.dtd">
<svg width="1859pt" height="850pt" viewBox="0 0 1859 850" version="1.1" xmlns="http://www.w3.org/2000/svg">
   <g xmlns="http://www.w3.org/2000/svg" id="#233f87ff">
        <path fill="#233f87" opacity="1.00" d=" M 1284.22 0.00 L 1285.02 0.00 C 1289.09 0.98 1292.67 4.46 1291.90 8.94 C 1290.28 29.96 1288.64 50.99 1286.89 72.01 C 1286.91 76.99 1281.79 80.59 1277.08 79.07 C 1247.47 73.55 1217.79 68.30 1188.22 62.63 C 1181.50 61.56 1180.42 51.41 1186.74 48.89 C 1219.23 32.59 1251.55 15.92 1284.22 0.00 Z">
        </path>
        <path fill="#233f87" opacity="1.00" d=" M 1313.39 0.00 L 1316.03 0.00 C 1471.00 33.55 1626.08 66.62 1781.08 100.00 C 1789.60 100.50 1792.80 112.88 1785.16 117.03 C 1755.82 132.81 1726.20 148.14 1696.81 163.85 C 1693.93 165.52 1690.59 166.68 1687.28 165.72 C 1561.16 139.12 1435.02 112.61 1308.91 86.02 C 1303.72 85.33 1299.99 80.27 1300.82 75.11 C 1302.57 53.07 1304.12 31.02 1305.95 8.99 C 1306.02 4.60 1309.50 1.40 1313.39 0.00 Z">
        </path>
        <path fill="#4056a1" opacity="1.00" d=" M 1166.06 83.92 C 1165.81 78.01 1171.70 72.89 1177.52 74.50 C 1346.12 109.87 1514.71 145.36 1683.31 180.74 C 1688.22 181.42 1692.20 185.91 1691.71 190.95 C 1684.77 406.99 1677.77 623.04 1670.83 839.08 C 1671.28 844.56 1666.79 848.47 1661.99 850.00 L 1661.89 850.00 C 1489.50 798.82 1316.84 748.48 1144.41 697.46 C 1139.92 696.25 1137.27 691.60 1137.81 687.10 C 1147.24 486.04 1156.64 284.98 1166.06 83.92 M 1251.14 204.11 C 1236.48 221.55 1240.99 250.95 1260.59 262.80 C 1249.43 316.73 1250.78 373.67 1266.52 426.56 C 1277.21 461.14 1296.14 494.53 1325.80 516.18 C 1378.50 554.34 1457.93 554.30 1507.38 510.36 C 1559.08 465.03 1579.88 393.73 1580.70 326.85 C 1599.35 319.40 1609.32 296.91 1603.00 277.97 C 1595.49 249.36 1554.25 240.95 1535.53 263.47 C 1515.20 284.64 1527.88 324.55 1557.22 329.10 C 1555.78 388.61 1537.57 452.08 1491.43 492.45 C 1440.66 537.59 1352.86 526.36 1314.28 470.72 C 1274.37 412.50 1270.52 336.36 1283.66 268.91 C 1316.00 269.37 1334.05 226.12 1312.00 202.98 C 1296.94 184.76 1265.48 185.30 1251.14 204.11 Z">
        </path>
        <path fill="#233f87" opacity="1.00" d=" M 1800.41 125.55 C 1805.73 122.00 1814.10 125.55 1814.77 132.04 C 1829.99 322.87 1843.19 513.93 1859.00 704.69 L 1859.00 710.13 C 1857.35 715.99 1851.72 718.81 1847.29 722.28 C 1799.31 758.65 1751.31 794.99 1703.34 831.36 C 1697.19 836.05 1687.18 831.09 1688.00 823.14 C 1694.25 610.38 1700.23 397.61 1706.73 184.84 C 1706.75 180.38 1707.18 175.05 1711.73 172.81 C 1741.21 156.91 1770.91 141.41 1800.41 125.55 Z">
        </path>
        <path fill="#080808" opacity="1.00" d="M 596.36 172.47 C 603.19 169.98 610.74 175.76 610.27 182.96 C 610.36 292.99 610.24 403.03 610.33 513.06 C 610.22 527.39 619.91 541.79 634.39 544.63 C 665.85 550.87 703.36 533.29 713.51 501.56 C 719.04 484.9 710.509 461.136 717.564 450.337 C 726.649 440.487 742.571 430.403 759.17 424.11 C 771.632 419.395 773.82 423.99 774.86 430.99 C 775.7 447.76 774.58 464.64 775.53 481.41 C 776.92 499.82 796.33 513.19 814.1 509.31 C 842.88 503.86 863.11 473.6 860.65 444.94 C 861.27 434.59 856.86 421.99 864.42 413.45 C 876.64 404.4 890.97 398.72 904.04 391.01 C 909.95 386.47 919.16 391.77 919.19 398.92 C 919.52 415.14 919.15 431.38 919.44 447.6 C 920.55 466.27 940.37 480.51 958.45 476.47 C 985.59 471.14 1006.18 443.47 1004.44 416 C 1004.37 387.64 1004.45 359.29 1004.42 330.94 C 1004.35 325.4 1007.49 320.05 1012.39 317.44 C 1024.63 310.42 1036.52 302.77 1048.84 295.9 C 1055.8 292.54 1064.28 298.25 1064 305.91 C 1064.1 341.6 1064.08 377.31 1064.03 413 C 1062.93 446.87 1044.24 477.49 1021.39 501.38 C 993.72 528.31 951.23 543.78 913.47 531.45 C 904.11 529.24 893.33 516.3 884.86 526.84 C 854.37 557.18 808.29 578.28 765.57 562.49 C 757.39 561.22 748.08 550.94 740.64 558.68 C 705.2 595.43 648.09 614.8 598.7 598.22 C 565.31 584.98 547.64 547.67 551.23 513 C 551.23 411.65 551.2 310.29 551.24 208.93 C 550.92 202.93 554.96 197.78 560.07 195.09 C 572.32 187.81 583.8 179.13 596.36 172.47 Z">
        </path>
        <path fill="#080808" opacity="1.00" d="M 274.41 178.47 C 285.057 176.525 294.812 179.567 295.664 194.822 C 296.5 211.064 297.57 225.237 290.86 238.91 C 285.964 247.694 275.413 248.327 255.79 253.767 C 243.31 257.227 231.01 259.82 218.59 263.44 C 210.46 265.67 203.6 256.48 205.87 248.98 C 209.16 234.41 213.01 219.96 216.31 205.38 C 217.37 200.28 219.96 195.12 224.96 192.9 C 240.46 185.29 257.5 181.47 274.41 178.47 Z">
        </path>
        <path fill="#080808" opacity="1.00" d="M 841.47 181.49 C 888 178.63 937.7 207.98 947.51 255.53 C 956.67 288.83 938.54 330.6 902.6 337.66 C 835.85 354.18 769.6 372.85 702.4 387.39 C 694.64 389.85 686.34 381.89 689.02 374.06 C 692.63 361.56 697.15 349.34 700.78 336.84 C 702.2 331.7 705.03 326.12 710.58 324.59 C 769.52 309.8 828.71 295.31 887.27 279.34 C 901.858 273.16 880.11 248.48 866.37 244.73 C 829.05 233.14 792.62 252.74 757.84 263.93 C 748.9 266.98 744.601 263.278 744.66 248.66 C 744.42 218.866 743.737 210.781 756.06 203.12 C 781.65 188.31 812.14 182.55 841.47 181.49 Z">
        </path>
        <path fill="#080808" opacity="1.00" d="M 40.191 189.6 C 50.987 184.159 60.11 184.54 59.86 196.94 C 60.24 280.61 59.94 364.31 60.01 447.99 C 58.61 462.89 68.2 478.53 83.21 481.86 C 106.98 487.47 130.16 476.28 153.3 472.35 C 160.714 471.513 158.83 461.78 156.44 456.59 C 143.71 415.82 162.12 373.43 188.46 342.47 C 210.89 315.06 245.34 296.64 281.19 297.54 C 313.49 297.23 344.67 319.14 355.4 349.59 C 362.91 370.82 361.64 394.41 354.59 415.59 C 352.56 419.59 354.67 425.81 359.9 425.09 C 390.11 418.67 426.8 414.42 443.58 384.55 C 451.39 372.17 451.74 357.15 451.22 343 C 451.24 315.32 451.18 287.64 451.24 259.96 C 451.02 254.52 454.24 249.53 458.92 246.93 C 470.85 239.84 482.72 232.62 494.74 225.7 C 501.56 221.35 510.97 227.3 510.64 235.18 C 510.8 272.14 510.69 309.11 510.69 346.06 C 510.01 410.25 455.23 464.45 393.55 474.56 C 308.22 493.66 223.01 513.38 137.73 532.74 C 115.21 537.76 92.28 544.07 68.99 540.9 C 28.44 537.5 -0.97 498.43 0 458.97 L 0 221.34 C 2.42 202.87 9.31 204.385 23.73 196.383 M 260.36 356.36 C 230.27 361.76 206.53 393.78 212.71 424.24 C 215.07 437.3 226.82 447.57 239.76 449.41 C 277.55 453.87 311.55 410.73 297.96 375.03 C 291.97 360.85 275.22 353.03 260.36 356.36 Z">
        </path>
        <path fill="#080808" opacity="1.00" d="M 454.44 501.48 C 474.34 499.79 493.93 510.71 505.18 526.79 C 524.51 552.66 525.06 589.98 508.21 617.21 C 490.9 646.82 458.45 663.78 426.21 672.15 C 410.94 675.64 386.312 682.281 378.98 675.09 C 365.543 661.912 360.56 651.47 351.06 639.93 C 345.2 633.8 349.62 622.63 358.11 622.24 C 387.17 618.5 418.35 617.23 443.59 600.58 C 454.49 593.82 463.7 580.53 459.62 567.3 C 458.37 563.11 453.34 562.46 449.72 563.66 C 398.08 576.77 346.39 589.7 294.75 602.82 C 287.91 605.04 279.27 604.52 274.37 598.64 C 264.87 588.46 254.76 578.85 245.47 568.48 C 239.86 562.23 244.72 551.72 252.81 550.88 C 320.32 535.66 386.97 516.64 454.44 501.48 Z">
        </path>
    </g>
</svg>
